<?xml version="1.0" encoding="UTF-8" standalone="no"?>
<!DOCTYPE svg PUBLIC "-//W3C//DTD SVG 1.1//EN" "http://www.w3.org/Graphics/SVG/1.1/DTD/svg11.dtd">
<svg width="100%" height="100%" viewBox="0 0 526 526" version="1.1" xmlns="http://www.w3.org/2000/svg" xmlns:xlink="http://www.w3.org/1999/xlink" xml:space="preserve" xmlns:serif="http://www.serif.com/" style="fill-rule:evenodd;clip-rule:evenodd;stroke-linecap:round;stroke-linejoin:round;stroke-miterlimit:1.5;">
    <g transform="matrix(1,0,0,1,-592,-1941)">
        <g id="favicon" transform="matrix(1,0,0,1,-0.0409693,-0.491703)">
            <rect x="592.041" y="1941.49" width="525.39" height="525.39" style="fill:none;"/>
            <g transform="matrix(1.3182,0,0,1.3182,-792.18,800.334)">
                <g transform="matrix(1,0,0,1,-469.828,-169.995)">
                    <path d="M1560.38,1110.46L1613.2,1070.47L1831.43,1070.47L1883.97,1113.07C1896.14,1219.24 1819.63,1368.66 1723.76,1404.42C1633.29,1367.53 1544.21,1246.74 1560.38,1110.46Z" style="fill:rgb(255,150,69);"/>
                </g>
                <g transform="matrix(1,0,0,1,25.6586,-38.1893)">
                    <path d="M1065.18,1063.93L1154.27,1063.93L1191.72,1026.48" style="fill:none;stroke:white;stroke-width:9.48px;"/>
                </g>
                <g transform="matrix(1.00542,0,0,0.903275,4.9278,69.036)">
                    <path d="M1082.13,1108.56L1227.65,1108.56" style="fill:none;stroke:white;stroke-width:9.92px;"/>
                </g>
                <g transform="matrix(1.00867,0,0,0.767158,7.10735,229.486)">
                    <path d="M1095.92,1149.6L1154.77,1149.6L1204.45,1198.24" style="fill:none;stroke:white;stroke-width:10.58px;"/>
                </g>
                <g transform="matrix(0.8365,0,0,0.8365,291.516,97.874)">
                    <circle cx="1123.55" cy="1052.31" r="17.393" style="fill:rgb(140,86,53);fill-opacity:0;stroke:white;stroke-width:11.34px;"/>
                </g>
                <g transform="matrix(0.8365,0,0,0.8365,314.973,188.995)">
                    <circle cx="1123.55" cy="1052.31" r="17.393" style="fill:rgb(140,86,53);fill-opacity:0;stroke:white;stroke-width:11.34px;"/>
                </g>
                <g transform="matrix(0.8365,0,0,0.8365,291.19,280.773)">
                    <circle cx="1123.55" cy="1052.31" r="17.393" style="fill:rgb(140,86,53);fill-opacity:0;stroke:white;stroke-width:11.34px;"/>
                </g>
            </g>
        </g>
    </g>
</svg>
