<?xml version="1.0" encoding="UTF-8" standalone="no"?>
<!DOCTYPE svg PUBLIC "-//W3C//DTD SVG 1.1//EN" "http://www.w3.org/Graphics/SVG/1.1/DTD/svg11.dtd">
<svg width="100%" height="100%" viewBox="0 0 2820 296" version="1.1" xmlns="http://www.w3.org/2000/svg" xmlns:xlink="http://www.w3.org/1999/xlink" xml:space="preserve" xmlns:serif="http://www.serif.com/" style="fill-rule:evenodd;clip-rule:evenodd;stroke-linecap:round;stroke-linejoin:round;stroke-miterlimit:1.5;">
    <rect id="dark" x="0" y="-0" width="2819.08" height="295.543" style="fill:none;"/>
    <g>
        <path d="M327.512,81.593L445.175,81.593L445.175,112.526L405.698,112.526L405.698,206.862L366.989,206.862L366.989,112.526L327.512,112.526L327.512,81.593Z" style="fill:rgb(57,57,57);fill-rule:nonzero;"/>
        <path d="M448.34,144.313C448.34,123.862 454.037,107.94 465.43,96.547C476.824,85.154 492.689,79.457 513.025,79.457C533.875,79.457 549.94,85.054 561.219,96.248C572.498,107.442 578.138,123.122 578.138,143.288C578.138,157.928 575.674,169.934 570.746,179.305C565.819,188.676 558.698,195.967 549.384,201.18C540.07,206.392 528.463,208.998 514.564,208.998C500.436,208.998 488.744,206.748 479.487,202.248C470.23,197.747 462.724,190.627 456.971,180.885C451.217,171.144 448.34,158.953 448.34,144.313ZM487.049,144.484C487.049,157.131 489.399,166.217 494.098,171.742C498.798,177.268 505.193,180.031 513.282,180.031C521.599,180.031 528.036,177.325 532.593,171.913C537.151,166.501 539.429,156.789 539.429,142.775C539.429,130.983 537.051,122.367 532.294,116.927C527.538,111.486 521.086,108.766 512.94,108.766C505.136,108.766 498.869,111.529 494.141,117.055C489.413,122.581 487.049,131.724 487.049,144.484Z" style="fill:rgb(57,57,57);fill-rule:nonzero;"/>
        <path d="M582.157,81.593L699.821,81.593L699.821,112.526L660.343,112.526L660.343,206.862L621.635,206.862L621.635,112.526L582.157,112.526L582.157,81.593Z" style="fill:rgb(57,57,57);fill-rule:nonzero;"/>
        <path d="M779.036,186.183L734.944,186.183L728.877,206.862L689.314,206.862L736.397,81.593L778.608,81.593L825.691,206.862L785.188,206.862L779.036,186.183ZM770.918,159.096L757.075,114.064L743.318,159.096L770.918,159.096Z" style="fill:rgb(57,57,57);fill-rule:nonzero;"/>
        <path d="M834.581,81.593L873.29,81.593L873.29,176.015L933.702,176.015L933.702,206.862L834.581,206.862L834.581,81.593Z" style="fill:rgb(57,57,57);fill-rule:nonzero;"/>
        <path d="M993.865,81.593L1111.53,81.593L1111.53,112.526L1072.05,112.526L1072.05,206.862L1033.34,206.862L1033.34,112.526L993.865,112.526L993.865,81.593Z" style="fill:rgb(57,57,57);fill-rule:nonzero;"/>
        <path d="M1125.46,81.593L1229.2,81.593L1229.2,108.339L1164.25,108.339L1164.25,128.249L1224.5,128.249L1224.5,153.798L1164.25,153.798L1164.25,178.493L1231.08,178.493L1231.08,206.862L1125.46,206.862L1125.46,81.593Z" style="fill:rgb(57,57,57);fill-rule:nonzero;"/>
        <path d="M1331.82,155.678L1365.75,165.932C1363.47,175.445 1359.88,183.392 1354.98,189.772C1350.08,196.152 1344,200.966 1336.74,204.213C1329.47,207.46 1320.23,209.084 1309.01,209.084C1295.39,209.084 1284.27,207.104 1275.64,203.145C1267.01,199.186 1259.56,192.222 1253.3,182.253C1247.03,172.284 1243.9,159.523 1243.9,143.971C1243.9,123.236 1249.41,107.299 1260.43,96.162C1271.45,85.026 1287.05,79.457 1307.21,79.457C1322.99,79.457 1335.4,82.647 1344.43,89.027C1353.46,95.408 1360.16,105.206 1364.55,118.422L1330.37,126.027C1329.17,122.21 1327.92,119.419 1326.61,117.653C1324.45,114.691 1321.8,112.412 1318.66,110.817C1315.53,109.222 1312.03,108.424 1308.15,108.424C1299.38,108.424 1292.66,111.956 1287.99,119.02C1284.46,124.261 1282.69,132.493 1282.69,143.715C1282.69,157.615 1284.8,167.142 1289.01,172.298C1293.23,177.453 1299.15,180.031 1306.79,180.031C1314.19,180.031 1319.79,177.952 1323.58,173.793C1327.37,169.635 1330.12,163.596 1331.82,155.678Z" style="fill:rgb(57,57,57);fill-rule:nonzero;"/>
        <path d="M1381.22,81.593L1419.92,81.593L1419.92,125.429L1462.22,125.429L1462.22,81.593L1501.1,81.593L1501.1,206.862L1462.22,206.862L1462.22,156.191L1419.92,156.191L1419.92,206.862L1381.22,206.862L1381.22,81.593Z" style="fill:rgb(57,57,57);fill-rule:nonzero;"/>
        <path d="M1578.01,81.593L1642.36,81.593C1656.37,81.593 1666.87,84.926 1673.85,91.591C1680.82,98.256 1684.31,107.741 1684.31,120.046C1684.31,132.692 1680.51,142.576 1672.9,149.696C1665.3,156.817 1653.69,160.378 1638.08,160.378L1616.89,160.378L1616.89,206.862L1578.01,206.862L1578.01,81.593ZM1616.89,134.999L1626.38,134.999C1633.84,134.999 1639.08,133.703 1642.1,131.111C1645.12,128.519 1646.63,125.201 1646.63,121.156C1646.63,117.226 1645.32,113.893 1642.7,111.159C1640.08,108.424 1635.15,107.057 1627.92,107.057L1616.89,107.057L1616.89,134.999Z" style="fill:rgb(57,57,57);fill-rule:nonzero;"/>
        <path d="M1701.58,206.862L1701.58,81.593L1766.09,81.593C1778.05,81.593 1787.2,82.619 1793.52,84.67C1799.84,86.72 1804.94,90.523 1808.82,96.077C1812.69,101.631 1814.63,108.396 1814.63,116.371C1814.63,123.321 1813.14,129.317 1810.18,134.358C1807.22,139.4 1803.15,143.487 1797.96,146.62C1794.66,148.614 1790.13,150.266 1784.38,151.576C1788.99,153.114 1792.35,154.652 1794.46,156.191C1795.88,157.216 1797.95,159.409 1800.65,162.77C1803.36,166.131 1805.17,168.723 1806.08,170.546L1824.79,206.862L1781.04,206.862L1760.37,168.581C1757.75,163.625 1755.41,160.406 1753.36,158.925C1750.57,156.988 1747.41,156.02 1743.87,156.02L1740.46,156.02L1740.46,206.862L1701.58,206.862ZM1740.46,132.35L1756.78,132.35C1758.54,132.35 1761.96,131.781 1767.03,130.641C1769.59,130.129 1771.69,128.818 1773.31,126.711C1774.93,124.603 1775.75,122.182 1775.75,119.447C1775.75,115.403 1774.46,112.298 1771.9,110.133C1769.34,107.969 1764.52,106.886 1757.46,106.886L1740.46,106.886L1740.46,132.35Z" style="fill:rgb(57,57,57);fill-rule:nonzero;"/>
        <path d="M1825.82,144.313C1825.82,123.862 1831.52,107.94 1842.91,96.547C1854.31,85.154 1870.17,79.457 1890.51,79.457C1911.36,79.457 1927.42,85.054 1938.7,96.248C1949.98,107.442 1955.62,123.122 1955.62,143.288C1955.62,157.928 1953.16,169.934 1948.23,179.305C1943.3,188.676 1936.18,195.967 1926.87,201.18C1917.55,206.392 1905.95,208.998 1892.05,208.998C1877.92,208.998 1866.23,206.748 1856.97,202.248C1847.71,197.747 1840.21,190.627 1834.45,180.885C1828.7,171.144 1825.82,158.953 1825.82,144.313ZM1864.53,144.484C1864.53,157.131 1866.88,166.217 1871.58,171.742C1876.28,177.268 1882.67,180.031 1890.76,180.031C1899.08,180.031 1905.52,177.325 1910.08,171.913C1914.63,166.501 1916.91,156.789 1916.91,142.775C1916.91,130.983 1914.53,122.367 1909.78,116.927C1905.02,111.486 1898.57,108.766 1890.42,108.766C1882.62,108.766 1876.35,111.529 1871.62,117.055C1866.89,122.581 1864.53,131.724 1864.53,144.484Z" style="fill:rgb(57,57,57);fill-rule:nonzero;"/>
        <path d="M1959.64,81.593L2077.3,81.593L2077.3,112.526L2037.83,112.526L2037.83,206.862L1999.12,206.862L1999.12,112.526L1959.64,112.526L1959.64,81.593Z" style="fill:rgb(57,57,57);fill-rule:nonzero;"/>
        <path d="M2091.24,81.593L2194.97,81.593L2194.97,108.339L2130.03,108.339L2130.03,128.249L2190.27,128.249L2190.27,153.798L2130.03,153.798L2130.03,178.493L2196.85,178.493L2196.85,206.862L2091.24,206.862L2091.24,81.593Z" style="fill:rgb(57,57,57);fill-rule:nonzero;"/>
        <path d="M2297.6,155.678L2331.52,165.932C2329.24,175.445 2325.65,183.392 2320.76,189.772C2315.86,196.152 2309.78,200.966 2302.51,204.213C2295.25,207.46 2286.01,209.084 2274.78,209.084C2261.17,209.084 2250.05,207.104 2241.41,203.145C2232.78,199.186 2225.34,192.222 2219.07,182.253C2212.8,172.284 2209.67,159.523 2209.67,143.971C2209.67,123.236 2215.18,107.299 2226.2,96.162C2237.23,85.026 2252.82,79.457 2272.99,79.457C2288.77,79.457 2301.17,82.647 2310.2,89.027C2319.23,95.408 2325.94,105.206 2330.33,118.422L2296.15,126.027C2294.95,122.21 2293.7,119.419 2292.39,117.653C2290.22,114.691 2287.57,112.412 2284.44,110.817C2281.31,109.222 2277.8,108.424 2273.93,108.424C2265.16,108.424 2258.43,111.956 2253.76,119.02C2250.23,124.261 2248.47,132.493 2248.47,143.715C2248.47,157.615 2250.57,167.142 2254.79,172.298C2259,177.453 2264.93,180.031 2272.56,180.031C2279.97,180.031 2285.56,177.952 2289.35,173.793C2293.14,169.635 2295.89,163.596 2297.6,155.678Z" style="fill:rgb(57,57,57);fill-rule:nonzero;"/>
        <path d="M2338.02,81.593L2455.68,81.593L2455.68,112.526L2416.2,112.526L2416.2,206.862L2377.5,206.862L2377.5,112.526L2338.02,112.526L2338.02,81.593Z" style="fill:rgb(57,57,57);fill-rule:nonzero;"/>
        <rect x="2471.24" y="81.593" width="38.794" height="125.269" style="fill:rgb(57,57,57);fill-rule:nonzero;"/>
        <path d="M2529.43,144.313C2529.43,123.862 2535.13,107.94 2546.52,96.547C2557.91,85.154 2573.78,79.457 2594.12,79.457C2614.97,79.457 2631.03,85.054 2642.31,96.248C2653.59,107.442 2659.23,123.122 2659.23,143.288C2659.23,157.928 2656.77,169.934 2651.84,179.305C2646.91,188.676 2639.79,195.967 2630.48,201.18C2621.16,206.392 2609.55,208.998 2595.66,208.998C2581.53,208.998 2569.84,206.748 2560.58,202.248C2551.32,197.747 2543.82,190.627 2538.06,180.885C2532.31,171.144 2529.43,158.953 2529.43,144.313ZM2568.14,144.484C2568.14,157.131 2570.49,166.217 2575.19,171.742C2579.89,177.268 2586.28,180.031 2594.37,180.031C2602.69,180.031 2609.13,177.325 2613.68,171.913C2618.24,166.501 2620.52,156.789 2620.52,142.775C2620.52,130.983 2618.14,122.367 2613.39,116.927C2608.63,111.486 2602.18,108.766 2594.03,108.766C2586.23,108.766 2579.96,111.529 2575.23,117.055C2570.51,122.581 2568.14,131.724 2568.14,144.484Z" style="fill:rgb(57,57,57);fill-rule:nonzero;"/>
        <path d="M2676.84,81.593L2712.98,81.593L2760.15,150.893L2760.15,81.593L2796.64,81.593L2796.64,206.862L2760.15,206.862L2713.24,138.075L2713.24,206.862L2676.84,206.862L2676.84,81.593Z" style="fill:rgb(57,57,57);fill-rule:nonzero;"/>
        <g>
            <g>
                <path d="M11.229,48.384L52.146,17.416L221.18,17.416L261.876,50.408C271.305,132.646 212.038,248.377 137.785,276.078C67.709,247.506 -1.289,153.941 11.229,48.384Z" style="fill:rgb(255,150,69);"/>
                <path d="M11.457,114.437L80.46,114.437L109.465,85.433" style="fill:none;stroke:white;stroke-width:12.5px;"/>
                <path d="M13.068,149.004L126.394,149.004" style="fill:none;stroke:white;stroke-width:12.5px;"/>
                <path d="M28.26,180.794L74.239,180.794L113.049,209.7" style="fill:none;stroke:white;stroke-width:12.5px;"/>
                <circle cx="120.302" cy="77.558" r="11.27" style="fill:rgb(140,86,53);fill-opacity:0;stroke:white;stroke-width:10.42px;"/>
                <circle cx="138.471" cy="148.137" r="11.27" style="fill:rgb(140,86,53);fill-opacity:0;stroke:white;stroke-width:10.42px;"/>
                <circle cx="120.049" cy="219.225" r="11.27" style="fill:rgb(140,86,53);fill-opacity:0;stroke:white;stroke-width:10.42px;"/>
            </g>
        </g>
    </g>
</svg>
