<?xml version="1.0" encoding="UTF-8" standalone="no"?>
<!DOCTYPE svg PUBLIC "-//W3C//DTD SVG 1.1//EN" "http://www.w3.org/Graphics/SVG/1.1/DTD/svg11.dtd">
<svg width="100%" height="100%" viewBox="0 0 2472 296" version="1.1" xmlns="http://www.w3.org/2000/svg" xmlns:xlink="http://www.w3.org/1999/xlink" xml:space="preserve" xmlns:serif="http://www.serif.com/" style="fill-rule:evenodd;clip-rule:evenodd;stroke-linecap:round;stroke-linejoin:round;stroke-miterlimit:1.5;">
    <g transform="matrix(1,0,0,1,-2481.33,-672.029)">
        <g id="dark" transform="matrix(1.31076,0,0,0.304632,-493.671,629.452)">
            <rect x="2269.68" y="139.767" width="1885.68" height="970.165" style="fill:none;"/>
            <g transform="matrix(1.12848,0,0,3.28265,-312.188,-1510.68)">
                <g transform="matrix(0.523651,0,0,0.774567,1737.88,-206.869)">
                    <g transform="matrix(1,0,0,1,-495.487,-131.805)">
                        <path d="M1560.38,1110.46L1613.2,1070.47L1831.43,1070.47L1883.97,1113.07C1896.14,1219.24 1819.63,1368.66 1723.76,1404.42C1633.29,1367.53 1544.21,1246.74 1560.38,1110.46Z" style="fill:rgb(255,150,69);"/>
                    </g>
                    <path d="M1065.18,1063.93L1154.27,1063.93L1191.72,1026.48" style="fill:none;stroke:white;stroke-width:16.14px;"/>
                    <g transform="matrix(1.00542,0,0,0.903275,-20.7308,107.225)">
                        <path d="M1082.13,1108.56L1227.65,1108.56" style="fill:none;stroke:white;stroke-width:16.89px;"/>
                    </g>
                    <g transform="matrix(1.00867,0,0,0.767158,-18.5513,267.675)">
                        <path d="M1095.92,1149.6L1154.77,1149.6L1204.45,1198.24" style="fill:none;stroke:white;stroke-width:18.01px;"/>
                    </g>
                    <g transform="matrix(0.8365,0,0,0.8365,265.858,136.063)">
                        <circle cx="1123.55" cy="1052.31" r="17.393" style="fill:rgb(140,86,53);fill-opacity:0;stroke:white;stroke-width:16.08px;"/>
                    </g>
                    <g transform="matrix(0.8365,0,0,0.8365,289.315,227.184)">
                        <circle cx="1123.55" cy="1052.31" r="17.393" style="fill:rgb(140,86,53);fill-opacity:0;stroke:white;stroke-width:16.08px;"/>
                    </g>
                    <g transform="matrix(0.8365,0,0,0.8365,265.531,318.962)">
                        <circle cx="1123.55" cy="1052.31" r="17.393" style="fill:rgb(140,86,53);fill-opacity:0;stroke:white;stroke-width:16.08px;"/>
                    </g>
                </g>
                <g transform="matrix(2.30855,0,0,3.41473,-25.8305,-3914.06)">
                    <path d="M1102.64,1318.08L1137.11,1318.08L1137.11,1327.14L1125.55,1327.14L1125.55,1354.78L1114.21,1354.78L1114.21,1327.14L1102.64,1327.14L1102.64,1318.08Z" style="fill:rgb(56,56,56);fill-rule:nonzero;"/>
                    <path d="M1137.73,1336.45C1137.73,1330.46 1139.4,1325.8 1142.73,1322.46C1146.07,1319.13 1150.72,1317.46 1156.67,1317.46C1162.78,1317.46 1167.49,1319.1 1170.79,1322.38C1174.09,1325.65 1175.75,1330.25 1175.75,1336.15C1175.75,1340.44 1175.02,1343.96 1173.58,1346.7C1172.14,1349.45 1170.05,1351.58 1167.32,1353.11C1164.6,1354.64 1161.2,1355.4 1157.12,1355.4C1152.99,1355.4 1149.56,1354.74 1146.85,1353.42C1144.14,1352.11 1141.94,1350.02 1140.26,1347.17C1138.57,1344.31 1137.73,1340.74 1137.73,1336.45ZM1149.07,1336.51C1149.07,1340.21 1149.75,1342.87 1151.13,1344.49C1152.51,1346.11 1154.38,1346.92 1156.75,1346.92C1159.18,1346.92 1161.07,1346.12 1162.41,1344.54C1163.74,1342.95 1164.41,1340.11 1164.41,1336C1164.41,1332.55 1163.71,1330.03 1162.32,1328.43C1160.92,1326.84 1159.04,1326.04 1156.65,1326.04C1154.36,1326.04 1152.53,1326.85 1151.14,1328.47C1149.76,1330.09 1149.07,1332.77 1149.07,1336.51Z" style="fill:rgb(56,56,56);fill-rule:nonzero;"/>
                    <path d="M1176.62,1318.08L1211.08,1318.08L1211.08,1327.14L1199.52,1327.14L1199.52,1354.78L1188.18,1354.78L1188.18,1327.14L1176.62,1327.14L1176.62,1318.08Z" style="fill:rgb(56,56,56);fill-rule:nonzero;"/>
                    <path d="M1233.97,1348.72L1221.06,1348.72L1219.28,1354.78L1207.69,1354.78L1221.48,1318.08L1233.85,1318.08L1247.64,1354.78L1235.78,1354.78L1233.97,1348.72ZM1231.6,1340.79L1227.54,1327.6L1223.51,1340.79L1231.6,1340.79Z" style="fill:rgb(56,56,56);fill-rule:nonzero;"/>
                    <path d="M1249.93,1318.08L1261.27,1318.08L1261.27,1345.74L1278.97,1345.74L1278.97,1354.78L1249.93,1354.78L1249.93,1318.08Z" style="fill:rgb(56,56,56);fill-rule:nonzero;"/>
                    <path d="M1295.97,1318.08L1330.44,1318.08L1330.44,1327.14L1318.88,1327.14L1318.88,1354.78L1307.54,1354.78L1307.54,1327.14L1295.97,1327.14L1295.97,1318.08Z" style="fill:rgb(56,56,56);fill-rule:nonzero;"/>
                    <path d="M1334.21,1318.08L1364.6,1318.08L1364.6,1325.92L1345.57,1325.92L1345.57,1331.75L1363.22,1331.75L1363.22,1339.23L1345.57,1339.23L1345.57,1346.47L1365.15,1346.47L1365.15,1354.78L1334.21,1354.78L1334.21,1318.08Z" style="fill:rgb(56,56,56);fill-rule:nonzero;"/>
                    <path d="M1394.35,1339.78L1404.28,1342.79C1403.62,1345.57 1402.57,1347.9 1401.13,1349.77C1399.69,1351.64 1397.91,1353.05 1395.79,1354C1393.66,1354.95 1390.95,1355.43 1387.66,1355.43C1383.68,1355.43 1380.42,1354.85 1377.89,1353.69C1375.36,1352.53 1373.18,1350.49 1371.35,1347.57C1369.51,1344.65 1368.59,1340.91 1368.59,1336.36C1368.59,1330.28 1370.21,1325.61 1373.44,1322.35C1376.66,1319.09 1381.23,1317.46 1387.14,1317.46C1391.76,1317.46 1395.39,1318.39 1398.04,1320.26C1400.68,1322.13 1402.65,1325 1403.93,1328.87L1393.92,1331.1C1393.57,1329.98 1393.2,1329.16 1392.82,1328.65C1392.19,1327.78 1391.41,1327.11 1390.49,1326.64C1389.58,1326.18 1388.55,1325.94 1387.41,1325.94C1384.85,1325.94 1382.88,1326.98 1381.51,1329.05C1380.47,1330.58 1379.96,1332.99 1379.96,1336.28C1379.96,1340.35 1380.57,1343.14 1381.81,1344.65C1383.04,1346.16 1384.78,1346.92 1387.01,1346.92C1389.18,1346.92 1390.82,1346.31 1391.93,1345.09C1393.04,1343.87 1393.85,1342.1 1394.35,1339.78Z" style="fill:rgb(56,56,56);fill-rule:nonzero;"/>
                    <path d="M1408.51,1318.08L1419.85,1318.08L1419.85,1330.92L1432.23,1330.92L1432.23,1318.08L1443.62,1318.08L1443.62,1354.78L1432.23,1354.78L1432.23,1339.93L1419.85,1339.93L1419.85,1354.78L1408.51,1354.78L1408.51,1318.08Z" style="fill:rgb(56,56,56);fill-rule:nonzero;"/>
                    <path d="M1465.53,1318.08L1484.38,1318.08C1488.48,1318.08 1491.56,1319.06 1493.6,1321.01C1495.65,1322.96 1496.67,1325.74 1496.67,1329.35C1496.67,1333.05 1495.56,1335.95 1493.33,1338.03C1491.1,1340.12 1487.7,1341.16 1483.13,1341.16L1476.92,1341.16L1476.92,1354.78L1465.53,1354.78L1465.53,1318.08ZM1476.92,1333.73L1479.7,1333.73C1481.88,1333.73 1483.42,1333.35 1484.31,1332.59C1485.19,1331.83 1485.63,1330.86 1485.63,1329.67C1485.63,1328.52 1485.25,1327.55 1484.48,1326.74C1483.71,1325.94 1482.27,1325.54 1480.15,1325.54L1476.92,1325.54L1476.92,1333.73Z" style="fill:rgb(56,56,56);fill-rule:nonzero;"/>
                    <path d="M1501.42,1354.78L1501.42,1318.08L1520.31,1318.08C1523.82,1318.08 1526.5,1318.38 1528.35,1318.99C1530.2,1319.59 1531.69,1320.7 1532.83,1322.33C1533.96,1323.95 1534.53,1325.93 1534.53,1328.27C1534.53,1330.31 1534.1,1332.06 1533.23,1333.54C1532.36,1335.02 1531.17,1336.21 1529.65,1337.13C1528.68,1337.71 1527.36,1338.2 1525.67,1338.58C1527.02,1339.03 1528.01,1339.48 1528.62,1339.93C1529.04,1340.23 1529.64,1340.88 1530.44,1341.86C1531.23,1342.85 1531.76,1343.6 1532.03,1344.14L1537.51,1354.78L1524.69,1354.78L1518.64,1343.56C1517.87,1342.11 1517.18,1341.17 1516.59,1340.74C1515.77,1340.17 1514.84,1339.88 1513.81,1339.88L1512.81,1339.88L1512.81,1354.78L1501.42,1354.78ZM1512.81,1332.95L1517.59,1332.95C1518.1,1332.95 1519.1,1332.78 1520.59,1332.45C1521.34,1332.3 1521.95,1331.92 1522.43,1331.3C1522.9,1330.68 1523.14,1329.97 1523.14,1329.17C1523.14,1327.99 1522.77,1327.08 1522.02,1326.44C1521.27,1325.81 1519.86,1325.49 1517.79,1325.49L1512.81,1325.49L1512.81,1332.95Z" style="fill:rgb(56,56,56);fill-rule:nonzero;"/>
                    <path d="M1537.5,1336.45C1537.5,1330.46 1539.17,1325.8 1542.51,1322.46C1545.85,1319.13 1550.49,1317.46 1556.45,1317.46C1562.56,1317.46 1567.26,1319.1 1570.56,1322.38C1573.87,1325.65 1575.52,1330.25 1575.52,1336.15C1575.52,1340.44 1574.8,1343.96 1573.36,1346.7C1571.91,1349.45 1569.83,1351.58 1567.1,1353.11C1564.37,1354.64 1560.97,1355.4 1556.9,1355.4C1552.76,1355.4 1549.34,1354.74 1546.62,1353.42C1543.91,1352.11 1541.72,1350.02 1540.03,1347.17C1538.34,1344.31 1537.5,1340.74 1537.5,1336.45ZM1548.84,1336.51C1548.84,1340.21 1549.53,1342.87 1550.9,1344.49C1552.28,1346.11 1554.15,1346.92 1556.52,1346.92C1558.96,1346.92 1560.85,1346.12 1562.18,1344.54C1563.51,1342.95 1564.18,1340.11 1564.18,1336C1564.18,1332.55 1563.49,1330.03 1562.09,1328.43C1560.7,1326.84 1558.81,1326.04 1556.42,1326.04C1554.14,1326.04 1552.3,1326.85 1550.92,1328.47C1549.53,1330.09 1548.84,1332.77 1548.84,1336.51Z" style="fill:rgb(56,56,56);fill-rule:nonzero;"/>
                    <path d="M1576.39,1318.08L1610.85,1318.08L1610.85,1327.14L1599.29,1327.14L1599.29,1354.78L1587.95,1354.78L1587.95,1327.14L1576.39,1327.14L1576.39,1318.08Z" style="fill:rgb(56,56,56);fill-rule:nonzero;"/>
                    <path d="M1614.63,1318.08L1645.01,1318.08L1645.01,1325.92L1625.99,1325.92L1625.99,1331.75L1643.63,1331.75L1643.63,1339.23L1625.99,1339.23L1625.99,1346.47L1645.56,1346.47L1645.56,1354.78L1614.63,1354.78L1614.63,1318.08Z" style="fill:rgb(56,56,56);fill-rule:nonzero;"/>
                    <path d="M1674.76,1339.78L1684.7,1342.79C1684.03,1345.57 1682.98,1347.9 1681.55,1349.77C1680.11,1351.64 1678.33,1353.05 1676.2,1354C1674.07,1354.95 1671.37,1355.43 1668.08,1355.43C1664.09,1355.43 1660.83,1354.85 1658.31,1353.69C1655.78,1352.53 1653.6,1350.49 1651.76,1347.57C1649.93,1344.65 1649.01,1340.91 1649.01,1336.36C1649.01,1330.28 1650.62,1325.61 1653.85,1322.35C1657.08,1319.09 1661.65,1317.46 1667.55,1317.46C1672.18,1317.46 1675.81,1318.39 1678.45,1320.26C1681.1,1322.13 1683.06,1325 1684.35,1328.87L1674.34,1331.1C1673.99,1329.98 1673.62,1329.16 1673.24,1328.65C1672.6,1327.78 1671.83,1327.11 1670.91,1326.64C1669.99,1326.18 1668.96,1325.94 1667.83,1325.94C1665.26,1325.94 1663.29,1326.98 1661.92,1329.05C1660.89,1330.58 1660.37,1332.99 1660.37,1336.28C1660.37,1340.35 1660.99,1343.14 1662.22,1344.65C1663.46,1346.16 1665.19,1346.92 1667.43,1346.92C1669.6,1346.92 1671.24,1346.31 1672.35,1345.09C1673.46,1343.87 1674.26,1342.1 1674.76,1339.78Z" style="fill:rgb(56,56,56);fill-rule:nonzero;"/>
                    <path d="M1686.29,1318.08L1720.76,1318.08L1720.76,1327.14L1709.19,1327.14L1709.19,1354.78L1697.86,1354.78L1697.86,1327.14L1686.29,1327.14L1686.29,1318.08Z" style="fill:rgb(56,56,56);fill-rule:nonzero;"/>
                </g>
            </g>
        </g>
    </g>
</svg>
