<?xml version="1.0" encoding="UTF-8" standalone="no"?>
<!DOCTYPE svg PUBLIC "-//W3C//DTD SVG 1.1//EN" "http://www.w3.org/Graphics/SVG/1.1/DTD/svg11.dtd">
<svg width="100%" height="100%" viewBox="0 0 2472 296" version="1.1" xmlns="http://www.w3.org/2000/svg" xmlns:xlink="http://www.w3.org/1999/xlink" xml:space="preserve" xmlns:serif="http://www.serif.com/" style="fill-rule:evenodd;clip-rule:evenodd;stroke-linecap:round;stroke-linejoin:round;stroke-miterlimit:1.5;">
    <rect id="light" x="0" y="0" width="2471.67" height="295.543" style="fill:none;"/>
    <g>
        <g>
            <path d="M11.229,48.384L52.146,17.416L221.18,17.416L261.876,50.408C271.305,132.646 212.038,248.377 137.785,276.078C67.709,247.506 -1.289,153.941 11.229,48.384Z" style="fill:rgb(255,150,69);"/>
            <path d="M11.457,114.437L80.46,114.437L109.465,85.433" style="fill:none;stroke:white;stroke-width:12.5px;"/>
            <path d="M25.301,149.004L126.394,149.004" style="fill:none;stroke:white;stroke-width:12.5px;stroke-linecap:square;"/>
            <path d="M34.126,180.794L74.239,180.794L113.049,209.7" style="fill:none;stroke:white;stroke-width:12.5px;"/>
            <circle cx="120.302" cy="77.558" r="11.27" style="fill:rgb(140,86,53);fill-opacity:0;stroke:white;stroke-width:10.42px;"/>
            <circle cx="138.471" cy="148.137" r="11.27" style="fill:rgb(140,86,53);fill-opacity:0;stroke:white;stroke-width:10.42px;"/>
            <circle cx="120.049" cy="219.225" r="11.27" style="fill:rgb(140,86,53);fill-opacity:0;stroke:white;stroke-width:10.42px;"/>
        </g>
        <g>
            <path d="M342.819,84.059L460.503,84.059L460.503,114.997L421.019,114.997L421.019,209.349L382.303,209.349L382.303,114.997L342.819,114.997L342.819,84.059Z" style="fill:white;fill-rule:nonzero;"/>
            <path d="M462.618,146.789C462.618,126.335 468.316,110.41 479.711,99.015C491.106,87.62 506.974,81.922 527.315,81.922C548.168,81.922 564.235,87.52 575.516,98.716C586.798,109.912 592.438,125.594 592.438,145.764C592.438,160.407 589.974,172.414 585.046,181.787C580.117,191.16 572.995,198.453 563.68,203.666C554.364,208.879 542.755,211.486 528.853,211.486C514.723,211.486 503.029,209.235 493.77,204.734C484.511,200.233 477.005,193.111 471.25,183.368C465.496,173.625 462.618,161.432 462.618,146.789ZM501.334,146.96C501.334,159.609 503.684,168.697 508.384,174.223C513.085,179.75 519.481,182.513 527.571,182.513C535.89,182.513 542.328,179.807 546.886,174.394C551.444,168.982 553.723,159.267 553.723,145.251C553.723,133.457 551.344,124.839 546.587,119.398C541.829,113.957 535.377,111.236 527.229,111.236C519.424,111.236 513.156,114 508.427,119.526C503.698,125.053 501.334,134.198 501.334,146.96Z" style="fill:white;fill-rule:nonzero;"/>
            <path d="M595.408,84.059L713.092,84.059L713.092,114.997L673.608,114.997L673.608,209.349L634.893,209.349L634.893,114.997L595.408,114.997L595.408,84.059Z" style="fill:white;fill-rule:nonzero;"/>
            <path d="M791.271,188.667L747.171,188.667L741.103,209.349L701.534,209.349L748.624,84.059L790.844,84.059L837.934,209.349L797.424,209.349L791.271,188.667ZM783.152,161.575L769.307,116.535L755.547,161.575L783.152,161.575Z" style="fill:white;fill-rule:nonzero;"/>
            <path d="M845.776,84.059L884.491,84.059L884.491,178.497L944.914,178.497L944.914,209.349L845.776,209.349L845.776,84.059Z" style="fill:white;fill-rule:nonzero;"/>
            <path d="M1002.99,84.059L1120.67,84.059L1120.67,114.997L1081.19,114.997L1081.19,209.349L1042.47,209.349L1042.47,114.997L1002.99,114.997L1002.99,84.059Z" style="fill:white;fill-rule:nonzero;"/>
            <path d="M1133.56,84.059L1237.31,84.059L1237.31,110.809L1172.36,110.809L1172.36,130.722L1232.61,130.722L1232.61,156.276L1172.36,156.276L1172.36,180.975L1239.19,180.975L1239.19,209.349L1133.56,209.349L1133.56,84.059Z" style="fill:white;fill-rule:nonzero;"/>
            <path d="M1338.9,158.156L1372.83,168.412C1370.55,177.927 1366.96,185.875 1362.07,192.256C1357.16,198.638 1351.08,203.452 1343.82,206.7C1336.55,209.947 1327.31,211.571 1316.09,211.571C1302.47,211.571 1291.34,209.591 1282.71,205.631C1274.08,201.672 1266.63,194.706 1260.36,184.736C1254.1,174.765 1250.96,162.002 1250.96,146.448C1250.96,125.708 1256.47,109.769 1267.5,98.63C1278.52,87.492 1294.12,81.922 1314.29,81.922C1330.07,81.922 1342.48,85.113 1351.51,91.494C1360.54,97.876 1367.25,107.675 1371.64,120.894L1337.45,128.5C1336.26,124.683 1335,121.891 1333.69,120.125C1331.53,117.162 1328.88,114.883 1325.74,113.288C1322.61,111.692 1319.11,110.895 1315.23,110.895C1306.46,110.895 1299.73,114.427 1295.06,121.492C1291.53,126.734 1289.76,134.967 1289.76,146.191C1289.76,160.093 1291.87,169.623 1296.09,174.779C1300.3,179.935 1306.23,182.513 1313.86,182.513C1321.27,182.513 1326.87,180.434 1330.66,176.275C1334.45,172.115 1337.19,166.076 1338.9,158.156Z" style="fill:white;fill-rule:nonzero;"/>
            <path d="M1387.26,84.059L1425.97,84.059L1425.97,127.902L1468.28,127.902L1468.28,84.059L1507.16,84.059L1507.16,209.349L1468.28,209.349L1468.28,158.669L1425.97,158.669L1425.97,209.349L1387.26,209.349L1387.26,84.059Z" style="fill:white;fill-rule:nonzero;"/>
            <path d="M1581.99,84.059L1646.34,84.059C1660.36,84.059 1670.85,87.392 1677.83,94.058C1684.81,100.724 1688.3,110.211 1688.3,122.518C1688.3,135.166 1684.5,145.052 1676.89,152.174C1669.29,159.296 1657.68,162.857 1642.07,162.857L1620.87,162.857L1620.87,209.349L1581.99,209.349L1581.99,84.059ZM1620.87,137.474L1630.36,137.474C1637.82,137.474 1643.06,136.178 1646.08,133.585C1649.1,130.993 1650.61,127.674 1650.61,123.629C1650.61,119.697 1649.3,116.364 1646.68,113.629C1644.06,110.895 1639.13,109.527 1631.9,109.527L1620.87,109.527L1620.87,137.474Z" style="fill:white;fill-rule:nonzero;"/>
            <path d="M1704.52,209.349L1704.52,84.059L1769.05,84.059C1781.01,84.059 1790.15,85.084 1796.48,87.136C1802.8,89.187 1807.9,92.99 1811.78,98.545C1815.65,104.1 1817.59,110.866 1817.59,118.843C1817.59,125.794 1816.11,131.791 1813.14,136.833C1810.18,141.875 1806.11,145.963 1800.92,149.097C1797.62,151.091 1793.09,152.743 1787.34,154.054C1791.95,155.592 1795.31,157.131 1797.42,158.669C1798.84,159.695 1800.91,161.888 1803.62,165.25C1806.32,168.611 1808.13,171.204 1809.04,173.027L1827.76,209.349L1784,209.349L1763.32,171.061C1760.7,166.104 1758.36,162.885 1756.31,161.404C1753.52,159.467 1750.36,158.498 1746.83,158.498L1743.41,158.498L1743.41,209.349L1704.52,209.349ZM1743.41,134.825L1759.73,134.825C1761.5,134.825 1764.91,134.255 1769.99,133.115C1772.55,132.602 1774.64,131.292 1776.27,129.184C1777.89,127.076 1778.7,124.654 1778.7,121.919C1778.7,117.874 1777.42,114.769 1774.86,112.604C1772.29,110.439 1767.48,109.356 1760.41,109.356L1743.41,109.356L1743.41,134.825Z" style="fill:white;fill-rule:nonzero;"/>
            <path d="M1827.74,146.789C1827.74,126.335 1833.44,110.41 1844.83,99.015C1856.23,87.62 1872.09,81.922 1892.43,81.922C1913.29,81.922 1929.36,87.52 1940.64,98.716C1951.92,109.912 1957.56,125.594 1957.56,145.764C1957.56,160.407 1955.09,172.414 1950.16,181.787C1945.24,191.16 1938.12,198.453 1928.8,203.666C1919.48,208.879 1907.88,211.486 1893.97,211.486C1879.84,211.486 1868.15,209.235 1858.89,204.734C1849.63,200.233 1842.12,193.111 1836.37,183.368C1830.62,173.625 1827.74,161.432 1827.74,146.789ZM1866.45,146.96C1866.45,159.609 1868.8,168.697 1873.5,174.223C1878.2,179.75 1884.6,182.513 1892.69,182.513C1901.01,182.513 1907.45,179.807 1912.01,174.394C1916.56,168.982 1918.84,159.267 1918.84,145.251C1918.84,133.457 1916.46,124.839 1911.71,119.398C1906.95,113.957 1900.5,111.236 1892.35,111.236C1884.54,111.236 1878.28,114 1873.55,119.526C1868.82,125.053 1866.45,134.198 1866.45,146.96Z" style="fill:white;fill-rule:nonzero;"/>
            <path d="M1960.53,84.059L2078.21,84.059L2078.21,114.997L2038.73,114.997L2038.73,209.349L2000.01,209.349L2000.01,114.997L1960.53,114.997L1960.53,84.059Z" style="fill:white;fill-rule:nonzero;"/>
            <path d="M2091.1,84.059L2194.85,84.059L2194.85,110.809L2129.9,110.809L2129.9,130.722L2190.15,130.722L2190.15,156.276L2129.9,156.276L2129.9,180.975L2196.73,180.975L2196.73,209.349L2091.1,209.349L2091.1,84.059Z" style="fill:white;fill-rule:nonzero;"/>
            <path d="M2296.45,158.156L2330.37,168.412C2328.1,177.927 2324.51,185.875 2319.61,192.256C2314.71,198.638 2308.62,203.452 2301.36,206.7C2294.1,209.947 2284.85,211.571 2273.63,211.571C2260.01,211.571 2248.88,209.591 2240.25,205.631C2231.62,201.672 2224.17,194.706 2217.9,184.736C2211.64,174.765 2208.5,162.002 2208.5,146.448C2208.5,125.708 2214.01,109.769 2225.04,98.63C2236.06,87.492 2251.66,81.922 2271.83,81.922C2287.61,81.922 2300.02,85.113 2309.05,91.494C2318.08,97.876 2324.79,107.675 2329.18,120.894L2294.99,128.5C2293.8,124.683 2292.54,121.891 2291.23,120.125C2289.07,117.162 2286.42,114.883 2283.28,113.288C2280.15,111.692 2276.65,110.895 2272.77,110.895C2264,110.895 2257.27,114.427 2252.6,121.492C2249.07,126.734 2247.3,134.967 2247.3,146.191C2247.3,160.093 2249.41,169.623 2253.63,174.779C2257.84,179.935 2263.77,182.513 2271.4,182.513C2278.81,182.513 2284.41,180.434 2288.2,176.275C2291.99,172.115 2294.74,166.076 2296.45,158.156Z" style="fill:white;fill-rule:nonzero;"/>
            <path d="M2335.82,84.059L2453.51,84.059L2453.51,114.997L2414.02,114.997L2414.02,209.349L2375.31,209.349L2375.31,114.997L2335.82,114.997L2335.82,84.059Z" style="fill:white;fill-rule:nonzero;"/>
        </g>
    </g>
</svg>
